<svg xmlns="http://www.w3.org/2000/svg" viewBox="0 0 1366 943.29"><title>frame</title><g id="Layer_2" data-name="Layer 2"><g id="Layer_2-2" data-name="Layer 2"><path d="M217.89,431.47c95.71,1.2,178.77,55.87,220.63,135.45,1.25,2.39,2.47,4.79,3.65,7.23a251.18,251.18,0,0,1,11.68,28.33q1.72,5,3.23,10.12a251.81,251.81,0,0,1,10.32,71.57A204,204,0,0,0,471,722.5,202.39,202.39,0,0,0,666.45,886.39c1.06,0,2.13,0,3.2,0s2.14,0,3.2,0A202.39,202.39,0,0,0,868.3,722.5a204,204,0,0,0,3.61-38.33,251.81,251.81,0,0,1,10.32-71.57q1.5-5.1,3.23-10.12a247.52,247.52,0,0,1,11.68-28.33c1.18-2.44,2.39-4.84,3.65-7.23a254.42,254.42,0,0,1,106.58-106.58q3.58-1.89,7.24-3.66a250.7,250.7,0,0,1,28.15-11.62q5-1.72,10.1-3.23a251.39,251.39,0,0,1,64.37-10.27q3.69.13,7.39.14A201.68,201.68,0,0,0,1267.23,87.42,201.67,201.67,0,0,0,923,230h6.41c0-107.68,87.59-195.27,195.26-195.27S1319.89,122.35,1319.89,230c0,106.6-85.86,193.52-192.07,195.23v-.19c-1.06,0-2.13,0-3.2,0s-2.14,0-3.2,0c-1.41,0-2.81,0-4.21.09a257,257,0,0,0-74.29,13q-4.59,1.51-9.13,3.23c-3.37,1.25-6.71,2.59-10,4q-8.35,3.52-16.39,7.61-3.5,1.77-6.93,3.65A260.65,260.65,0,0,0,897.14,560a258.82,258.82,0,0,0-224.29-134.9c-1.06,0-2.13,0-3.2,0s-2.14,0-3.2,0A259.49,259.49,0,0,0,442.17,560a258.82,258.82,0,0,0-224.28-134.9c-1.06,0-2.13,0-3.2,0s-2.14,0-3.21,0v6.4l3.21,0ZM672.85,880c-1.06,0-2.13,0-3.2,0s-2.14,0-3.2,0c-106.52-1.71-192.64-88.89-192.64-195.81s86.12-194.1,192.64-195.81h.73l2.47,0,2.47,0h.73c106.53,1.71,192.65,88.89,192.65,195.81S779.38,878.27,672.85,880ZM868.3,645.84A202.39,202.39,0,0,0,672.85,482h0c-.85,0-1.72,0-2.58,0H669c-.86,0-1.73,0-2.58,0h0A202.39,202.39,0,0,0,471,645.84a255.32,255.32,0,0,0-10.29-43.21C493,520.1,572.91,461.23,666.45,459.92l2,0h2.3l2.05,0c93.54,1.31,173.42,60.17,205.73,142.7A255.63,255.63,0,0,0,868.3,645.84ZM666.45,431.47l3.2,0,3.2,0c95.71,1.2,178.78,55.87,220.63,135.44q-4.08,8-7.62,16.4-2.13,5-4,10.15a230.44,230.44,0,0,0-209-140h-.33c-.95,0-1.91,0-2.87,0s-1.92,0-2.87,0h-.33a230.91,230.91,0,0,0-209,140q-1.92-5.1-4-10.15-3.54-8.35-7.62-16.4C487.68,487.34,570.74,432.67,666.45,431.47Z"/><path d="M211.48,459.92q1.61,0,3.21,0c1.07,0,2.13,0,3.2,0,93.54,1.31,173.41,60.18,205.73,142.71q1.94,4.92,3.64,10A223.38,223.38,0,0,1,439,684.17a231,231,0,0,0,3.21,38.57c.05.3.1.61.16.91a226.42,226.42,0,0,0,11.52,42.21q1.54,4.08,3.25,8.11c.13.3.25.6.39.91a230.44,230.44,0,0,0,209,140c1.06,0,2.13,0,3.2,0s2.14,0,3.2,0a230.95,230.95,0,0,0,209-140l.39-.91c1.13-2.69,2.22-5.39,3.25-8.11a227.84,227.84,0,0,0,11.68-43.12,232.1,232.1,0,0,0,3.2-38.57,223.22,223.22,0,0,1,11.71-71.55q1.69-5.05,3.63-10A225.52,225.52,0,0,1,1043,475.26c3.28-1.29,6.61-2.51,10-3.64a223.3,223.3,0,0,1,65.6-11.65c2,.06,4,.08,6,.08s4,0,6-.08h0a230.09,230.09,0,0,0,83.48-441.89A228.53,228.53,0,0,0,1124.62,0V6.41c123.3,0,223.62,100.31,223.62,223.62,0,121.27-97,220.3-217.54,223.53l-2.88-.05h-.37c-.94,0-1.88,0-2.83,0s-1.89,0-2.83,0h-.37l-2.88.05a231.54,231.54,0,0,0-33,3.2,228.59,228.59,0,0,0-42.71,11.62c-2.7,1-5.38,2.1-8,3.23l-.94.41A231.49,231.49,0,0,0,912.45,593.46l-.39.91c-1.13,2.7-2.22,5.4-3.25,8.12a227.72,227.72,0,0,0-11.67,43.11,231,231,0,0,0-3.21,38.57,223.38,223.38,0,0,1-11.7,71.57q-1.71,5-3.65,10c-32.31,82.53-112.19,141.39-205.73,142.7-1.07,0-2.13,0-3.2,0s-2.13,0-3.2,0C572.91,907.11,493,848.24,460.72,765.71q-1.94-4.92-3.64-10a223.28,223.28,0,0,1-11.55-63q-.16-4.26-.16-8.55a232.1,232.1,0,0,0-3.2-38.57,227.74,227.74,0,0,0-11.68-43.13q-1.55-4.07-3.25-8.1c-.12-.3-.25-.6-.39-.91a230.44,230.44,0,0,0-209-140c-1.06,0-2.13,0-3.2,0l-3.21,0a232.71,232.71,0,0,0-31.87,2.61v-.07q-3,.45-5.9,1v.06A226,226,0,0,0,149,463a231,231,0,0,0-63.08,29.77q-5.75,3.87-11.25,8.09c-1.47,1.13-2.92,2.27-4.37,3.43a.94.94,0,0,0-.12.09Q68,506.06,66,507.8a.39.39,0,0,0-.1.08q-7.38,6.25-14.29,13.17a235.59,235.59,0,0,0-16.63,18.49q-3.48,4.32-6.75,8.8a225.53,225.53,0,0,0-13.63,21l-.08.13c-.9,1.57-1.79,3.15-2.64,4.74q-2.67,4.92-5.12,10c-1.2,2.51-2.37,5-3.49,7.6l-1.11,2.58Q1,597,0,599.59v19.63C27.61,528.1,111.79,461.32,211.48,459.92Z"/><path d="M1206.37,468.38c-3.34,1.15-6.71,2.24-10.11,3.24A250.83,250.83,0,0,1,1128.64,482c-.27,0-.55,0-.82,0h0c-.86,0-1.72,0-2.59,0H1124c-.86,0-1.72,0-2.58,0h0c-.27,0-.55,0-.82,0a201.86,201.86,0,0,0-198.23,202.2,252,252,0,0,1-10.32,71.55c-1,3.41-2.08,6.79-3.24,10.13a249.43,249.43,0,0,1-11.67,28.34c-1.19,2.44-2.4,4.85-3.66,7.24C851.63,881,768.56,935.67,672.85,936.87h-6.4c-95.71-1.2-178.77-55.87-220.62-135.44-1.27-2.39-2.48-4.8-3.66-7.24a249.18,249.18,0,0,1-11.68-28.32c-1.15-3.34-2.23-6.73-3.23-10.13a251.81,251.81,0,0,1-10.33-71.57,203.78,203.78,0,0,0-3.6-38.31A202.38,202.38,0,0,0,217.89,482c-1.06,0-2.13,0-3.2,0l-3.21,0a204.27,204.27,0,0,0-31.87,3l-5.9,1.12h0a202.28,202.28,0,0,0,37.77,400.34l3.21,0c1.07,0,2.14,0,3.2,0V880c-1.06,0-2.13,0-3.2,0l-3.21,0C105,878.27,18.84,791.09,18.84,684.17S105,490.07,211.48,488.36c1.07,0,2.14,0,3.21,0s2.14,0,3.2,0c106.52,1.71,192.64,88.89,192.64,195.81a260.71,260.71,0,0,0,2.8,38.31,254.82,254.82,0,0,0,10.29,43.23q1.53,4.6,3.23,9.17,1.9,5.1,4,10.15,3.54,8.36,7.62,16.39c1.17,2.34,2.4,4.65,3.65,7a258.82,258.82,0,0,0,224.28,134.9c1.06,0,2.13,0,3.2,0s2.14,0,3.2,0a259.55,259.55,0,0,0,224.29-134.9c1.25-2.3,2.48-4.61,3.65-7q4.1-8,7.62-16.39,2.13-5,4-10.15,1.71-4.56,3.23-9.17A254.37,254.37,0,0,0,926,722.5a260.88,260.88,0,0,0,2.8-38.33c0-106.7,85.77-193.74,192-195.8,1.29,0,2.57,0,3.86,0s2.57,0,3.86,0a259.2,259.2,0,0,0,34.66-2.8,256.08,256.08,0,0,0,43.08-10.31q4.59-1.53,9.14-3.24,5-1.86,9.83-3.92a259.25,259.25,0,0,0,137.5-137.5c1.15-2.72,2.26-5.46,3.31-8.21v-20A253.11,253.11,0,0,1,1206.37,468.38Z"/></g></g></svg>